<!-- Generated by IcoMoon.io -->
<svg version="1.1" xmlns="http://www.w3.org/2000/svg" width="32" height="32" viewBox="0 0 32 32">
<title>computer-logo-linkedin</title>
<path d="M5.085-0.152c-2.194 0.050-4.001 1.808-4.107 4-0 0.011-0.001 0.025-0.001 0.038s0 0.027 0.001 0.040l-0-0.002c0.036 2.246 1.841 4.093 4.085 4.183 0.009 0 0.020 0 0.031 0s0.022-0 0.033-0l-0.002 0c2.282-0.036 4.134-1.927 4.116-4.21 0-0.006 0-0.013 0-0.020s-0-0.014-0-0.021v0.001c-0.090-2.205-1.909-3.978-4.116-4.009-0.006-0-0.013-0-0.020-0s-0.014 0-0.021 0h0.001zM5.116 2.152c0.989 0.031 1.76 0.793 1.817 1.781-0.011 1.018-0.798 1.808-1.813 1.853-1.005-0.069-1.769-0.856-1.817-1.862 0.078-0.976 0.83-1.736 1.813-1.772zM5.107 9.772c-0.708 0-1.397-0.138-2.263 0.147-0.433 0.143-0.918 0.48-1.188 0.951s-0.348 0.987-0.348 1.549l0.004 17.143c0 0.561 0.077 1.076 0.357 1.549s0.789 0.801 1.223 0.924c0.869 0.246 1.529 0.089 2.219 0.089s1.354 0.157 2.223-0.089c0.434-0.123 0.943-0.447 1.223-0.92s0.357-0.992 0.357-1.554v-17.143c0-0.563-0.082-1.078-0.353-1.549s-0.754-0.813-1.188-0.955c-0.867-0.285-1.559-0.143-2.268-0.143zM5.107 12.058c0.798 0 1.357 0.009 1.482 0.031 0.008 0.027 0.040 0.071 0.040 0.33v17.143c0 0.229-0.017 0.238-0.027 0.272-0.142 0.014-0.689 0.004-1.491 0.004s-1.345 0.010-1.487-0.004c-0.010-0.036-0.027-0.046-0.027-0.272l-0.004-17.143c0-0.258 0.031-0.301 0.040-0.33 0.123-0.022 0.675-0.031 1.473-0.031z"></path>
<path d="M22.647 9.571c-1.608-0.149-3.080 0.425-4.384 1.308-0.108-0.226-0.179-0.46-0.406-0.656-0.352-0.305-0.855-0.464-1.317-0.464-0.319 0-1.017-0.011-1.692-0.009s-1.161-0.032-1.746 0.085c-0.466 0.093-1.044 0.363-1.397 0.866s-0.451 1.088-0.451 1.719v17.143c0 0.562 0.076 1.081 0.357 1.554s0.784 0.797 1.219 0.92c0.868 0.246 1.536 0.089 2.223 0.089s1.35 0.156 2.219-0.089c0.434-0.123 0.938-0.447 1.219-0.92s0.357-0.992 0.357-1.554v-9.143c0-0.004 0-0.009 0-0.014 0-0.036-0.002-0.071-0.005-0.106l0 0.005c-0.134-1.327 0.895-2.432 2.228-2.397 0.013 0.001 0.029 0.001 0.045 0.001s0.031-0 0.047-0.001l-0.002 0c1.355-0.074 2.418 1.044 2.272 2.393-0.005 0.035-0.008 0.077-0.009 0.119l-0 0.001v9.143c0 0.561 0.077 1.076 0.357 1.549s0.789 0.801 1.223 0.924c0.868 0.246 1.53 0.089 2.219 0.089s1.35 0.157 2.219-0.089c0.434-0.123 0.943-0.447 1.223-0.92s0.357-0.992 0.357-1.554v-11.714l-0.004 0.063c0.254-4.71-3.678-8.593-8.371-8.339zM22.491 11.83c0.037 0.004 0.080 0.007 0.124 0.007 0.025 0 0.051-0.001 0.076-0.002l-0.003 0c3.415-0.237 6.233 2.532 6.049 5.951-0 0.009-0 0.020-0 0.031s0 0.022 0 0.033l-0-0.002v11.714c0 0.229-0.017 0.238-0.027 0.272-0.142 0.014-0.685 0.004-1.487 0.004s-1.345 0.009-1.487-0.004c-0.010-0.037-0.027-0.046-0.027-0.272v-9.143l-0.004 0.125c0.29-2.688-1.927-5.020-4.621-4.906-2.646-0.037-4.781 2.258-4.513 4.897l-0.009-0.116v9.143c0 0.229-0.017 0.238-0.027 0.272-0.143 0.014-0.682 0.004-1.482 0.004s-1.344 0.010-1.487-0.004c-0.009-0.035-0.027-0.043-0.027-0.272v-17.143c0-0.309 0.036-0.347 0.031-0.344-0.095 0.022 0.644-0.038 1.281-0.040 0.558-0.002 1.071 0.007 1.451 0.009 0.024 0.17 0.047 0.443 0.040 0.804-0 0.006-0 0.014-0 0.021 0 0.631 0.512 1.143 1.143 1.143 0.365 0 0.691-0.171 0.9-0.438l0.002-0.002c0.977-1.251 2.524-1.907 4.103-1.741z"></path>
</svg>
