<!-- Generated by IcoMoon.io -->
<svg version="1.1" xmlns="http://www.w3.org/2000/svg" width="32" height="32" viewBox="0 0 32 32">
<title>developer-community-github-1</title>
<path d="M16.094-0.192c-9.131-0.061-14.867 6.494-15.933 13.647s2.51 15.091 11.286 17.688c0.001 0 0.001 0 0.002 0s0.002 0 0.002 0h-0c0.538 0.157 1.121 0.052 1.571-0.281 0.458-0.338 0.731-0.873 0.732-1.442 0-0.001 0-0.001 0-0.002s0-0.002 0-0.002v0-2.973c-0.001-0.63-0.512-1.141-1.143-1.141-0.121 0-0.238 0.019-0.347 0.054l0.008-0.002c-1.25 0.387-2.488-0.267-3.022-1.429 0.442 0.318 0.962 0.659 1.652 0.79s1.452 0.002 2.232-0.348c0.372-0.168 0.635-0.52 0.674-0.937l0-0.005c0.059-0.672 0.279-1.318 0.647-1.884 0.116-0.176 0.185-0.392 0.185-0.624 0-0.583-0.437-1.064-1.001-1.134l-0.006-0.001c-1.436-0.17-2.73-0.392-3.545-0.96s-1.402-1.454-1.402-3.737c0-0.002 0-0.004 0-0.007s0-0.005-0-0.007v0c-0.014-1.008 0.356-1.983 1.040-2.723 0.187-0.203 0.302-0.475 0.302-0.774 0-0.137-0.024-0.268-0.068-0.39l0.003 0.008c-0.201-0.567-0.027-1.157 0.067-1.741 0.442 0.13 0.98 0.293 1.942 0.946 0.18 0.124 0.402 0.197 0.642 0.197 0.108 0 0.213-0.015 0.312-0.043l-0.008 0.002c1.949-0.534 4.007-0.534 5.955 0 0.090 0.026 0.194 0.040 0.301 0.040 0.239 0 0.461-0.073 0.645-0.199l-0.004 0.003c0.963-0.653 1.501-0.817 1.942-0.946 0.094 0.584 0.268 1.174 0.067 1.741-0.041 0.113-0.064 0.243-0.064 0.378 0 0.301 0.116 0.574 0.306 0.779l-0.001-0.001c0.686 0.739 1.059 1.716 1.045 2.723 0 0.002-0 0.004-0 0.007s0 0.005 0 0.007v-0c0 2.282-0.588 3.168-1.402 3.732s-2.111 0.78-3.549 0.938c-0.574 0.066-1.015 0.55-1.015 1.136 0 0.243 0.076 0.468 0.205 0.654l-0.002-0.004c0.483 0.696 0.726 1.533 0.692 2.379-0 0.006-0 0.013-0 0.020s0 0.014 0 0.021v-0.001l-0.013 5.504c0 0.001 0 0.001 0 0.002s0 0.002 0 0.002v-0c0.005 1.163 1.17 2.045 2.29 1.732 0.001 0 0.001 0 0.002 0s0.002 0 0.002 0h-0c8.81-2.479 12.493-10.369 11.522-17.536s-6.619-13.796-15.75-13.857zM16.076 2.094c8.052 0.054 12.658 5.666 13.5 11.879 0.816 6.021-2.020 12.346-9.263 14.728l0.013-4.692c0.033-0.833-0.392-1.569-0.683-2.339 1.138-0.165 2.313-0.245 3.371-0.978 1.441-0.999 2.376-2.857 2.379-5.594 0.018-1.383-0.606-2.642-1.433-3.737 0.296-1.238 0.374-2.54-0.143-3.714-0.133-0.299-0.382-0.526-0.688-0.627l-0.008-0.002c0 0-0.262-0.069-0.504-0.080s-0.56 0.009-0.942 0.089c-0.684 0.144-1.667 0.598-2.813 1.321-1.959-0.441-3.974-0.441-5.933 0-1.145-0.724-2.128-1.177-2.813-1.321-0.383-0.081-0.699-0.1-0.942-0.089s-0.504 0.080-0.504 0.080c-0.314 0.103-0.563 0.33-0.694 0.622l-0.003 0.007c-0.516 1.172-0.433 2.47-0.138 3.705-0.828 1.096-1.447 2.361-1.429 3.746 0.004 2.737 0.938 4.596 2.375 5.598 1.032 0.719 2.176 0.796 3.286 0.969-0.085 0.234-0.188 0.458-0.246 0.701-0.165 0.036-0.4 0.125-0.491 0.107-0.162-0.031-0.379-0.143-0.746-0.406-0.733-0.526-1.942-1.546-4.049-2.058-0.079-0.020-0.17-0.031-0.264-0.031-0.631 0-1.143 0.512-1.143 1.143 0 0.298 0.114 0.569 0.301 0.773l-0.001-0.001c0.679 0.736 1.186 1.613 1.491 2.567 0.005 0.017 0.008 0.026 0.011 0.035l-0.002-0.008c0.677 1.96 2.564 2.876 4.54 2.92v1.232c-7.197-2.483-9.944-8.843-9.049-14.848 0.925-6.202 5.604-11.75 13.656-11.696z"></path>
</svg>
