<!-- Generated by IcoMoon.io -->
<svg version="1.1" xmlns="http://www.w3.org/2000/svg" width="32" height="32" viewBox="0 0 32 32">
<title>developer-community-git</title>
<path d="M0.337 15.192c-0.446 0.446-0.446 1.17 0 1.616v0l14.856 14.856c0.446 0.446 1.17 0.446 1.616 0l14.856-14.856c0.446-0.446 0.446-1.17 0-1.616v0l-14.856-14.856c-0.446-0.446-1.17-0.446-1.616 0l-14.856 14.856zM2.762 16l13.239-13.239 13.239 13.239-13.239 13.239-13.239-13.239z"></path>
<path d="M10.83 5.121c-0.295 0.013-0.56 0.137-0.755 0.33l0-0c-0.207 0.207-0.335 0.492-0.335 0.808s0.128 0.601 0.335 0.808v0l3.482 3.487c0.207 0.207 0.492 0.335 0.808 0.335s0.601-0.128 0.808-0.335v0c0.207-0.207 0.335-0.492 0.335-0.808s-0.128-0.601-0.335-0.808v0l-3.482-3.487c-0.207-0.205-0.491-0.332-0.805-0.332-0.020 0-0.040 0-0.059 0.002l0.003-0z"></path>
<path d="M21.942 13.866c-1.894 0-3.451 1.561-3.451 3.455s1.557 3.455 3.451 3.455c1.894 0 3.455-1.561 3.455-3.455s-1.561-3.455-3.455-3.455zM21.942 16.152c0.659 0 1.17 0.511 1.17 1.17s-0.511 1.17-1.17 1.17c-0.659 0-1.165-0.511-1.165-1.17s0.507-1.17 1.165-1.17z"></path>
<path d="M16 19.152c-1.894 0-3.455 1.557-3.455 3.451s1.561 3.455 3.455 3.455c1.894 0 3.455-1.561 3.455-3.455s-1.561-3.451-3.455-3.451zM16 21.438c0.659 0 1.17 0.507 1.17 1.165s-0.511 1.17-1.17 1.17c-0.659 0-1.17-0.511-1.17-1.17s0.511-1.165 1.17-1.165z"></path>
<path d="M16 7.924c-1.894 0-3.455 1.561-3.455 3.455s1.561 3.451 3.455 3.451c1.894 0 3.455-1.557 3.455-3.451s-1.561-3.455-3.455-3.455zM16 10.21c0.659 0 1.17 0.511 1.17 1.17s-0.511 1.165-1.17 1.165c-0.659 0-1.17-0.507-1.17-1.165s0.511-1.17 1.17-1.17z"></path>
<path d="M17.58 11.871c-0.296 0.015-0.56 0.14-0.754 0.335l-0 0c-0.207 0.207-0.335 0.492-0.335 0.808s0.128 0.601 0.335 0.808l2.674 2.674c0.207 0.207 0.492 0.335 0.808 0.335s0.601-0.128 0.808-0.335v0c0.207-0.207 0.335-0.492 0.335-0.808s-0.128-0.601-0.335-0.808l-2.674-2.674c-0.207-0.208-0.493-0.336-0.809-0.336-0.018 0-0.037 0-0.055 0.001l0.003-0z"></path>
<path d="M16 12.545c-0.631 0-1.143 0.512-1.143 1.143v0 6.607c0 0.631 0.512 1.143 1.143 1.143v0c0.631 0 1.143-0.512 1.143-1.143v0-6.607c0-0.631-0.512-1.143-1.143-1.143v0z"></path>
</svg>
