<!-- Generated by IcoMoon.io -->
<svg version="1.1" xmlns="http://www.w3.org/2000/svg" width="32" height="32" viewBox="0 0 32 32">
<title>entertainment-play-list-4</title>
<path d="M3.429 0c-1.88 0-3.429 1.549-3.429 3.429v25.143c0 1.88 1.549 3.429 3.429 3.429h25.143c1.88 0 3.429-1.549 3.429-3.429v-25.143c0-1.88-1.549-3.429-3.429-3.429h-25.143zM3.429 2.286h25.143c0.653 0 1.143 0.49 1.143 1.143v25.143c0 0.653-0.49 1.143-1.143 1.143h-25.143c-0.653 0-1.143-0.49-1.143-1.143v-25.143c0-0.653 0.49-1.143 1.143-1.143z"></path>
<path d="M13.951 9.424c-1.339-0.776-3.127 0.251-3.129 1.799v9.862c0 0.001 0 0.001 0 0.002s0 0.002 0 0.002v-0c0.002 1.548 1.79 2.57 3.129 1.795l8.46-4.933c1.328-0.776 1.328-2.813 0-3.589 0-0.001 0-0.001 0-0.002s0-0.002 0-0.002v0l-8.46-4.929c0-0.001 0-0.001 0-0.002s0-0.002 0-0.002v0zM13.107 11.58l7.844 4.576-7.844 4.576v-9.152z"></path>
</svg>
