<!-- Generated by IcoMoon.io -->
<svg version="1.1" xmlns="http://www.w3.org/2000/svg" width="32" height="32" viewBox="0 0 32 32">
<title>entertainment-news-paper</title>
<path d="M2.286 2.857c-1.249 0-2.286 1.037-2.286 2.286v20.571c0 1.88 1.549 3.429 3.429 3.429h24.571c0.631 0 1.143-0.512 1.143-1.143v0c0-0.631-0.512-1.143-1.143-1.143v0h-24.571c-0.645 0-1.143-0.498-1.143-1.143v-20.571h21.714v20c0 0.631 0.512 1.143 1.143 1.143v0c0.631 0 1.143-0.512 1.143-1.143v0-20c0-1.249-1.037-2.286-2.286-2.286h-21.714z"></path>
<path d="M25.143 9.143c-0.631 0-1.143 0.512-1.143 1.143v0 14.857c0 2.196 1.804 4 4 4s4-1.804 4-4v-14.857c0-0.631-0.512-1.143-1.143-1.143v0c-0.631 0-1.143 0.512-1.143 1.143v0 14.857c0 0.96-0.754 1.714-1.714 1.714s-1.714-0.754-1.714-1.714v-14.857c0-0.631-0.512-1.143-1.143-1.143v0z"></path>
<path d="M8 8.571c-0.631 0-1.143 0.512-1.143 1.143v0 5.714c0 0.631 0.512 1.143 1.143 1.143h10.286c0.631-0 1.143-0.512 1.143-1.143v0-5.714c-0-0.631-0.512-1.143-1.143-1.143h-10.286zM9.143 10.857h8v3.429h-8v-3.429z"></path>
<path d="M8 21.143c-0.631 0-1.143 0.512-1.143 1.143v0c0 0.631 0.512 1.143 1.143 1.143v0h10.286c0.631 0 1.143-0.512 1.143-1.143v0c0-0.631-0.512-1.143-1.143-1.143v0h-10.286z"></path>
</svg>
