<!-- Generated by IcoMoon.io -->
<svg version="1.1" xmlns="http://www.w3.org/2000/svg" width="32" height="32" viewBox="0 0 32 32">
<title>image-picture-landscape-2</title>
<path d="M28.571 32c1.88 0 3.429-1.549 3.429-3.429v-25.143c0-1.88-1.549-3.429-3.429-3.429h-25.143c-1.88 0-3.429 1.549-3.429 3.429v25.143c0 1.88 1.549 3.429 3.429 3.429h25.143zM28.571 29.714h-25.143c-0.653 0-1.143-0.49-1.143-1.143v-25.143c0-0.653 0.49-1.143 1.143-1.143h25.143c0.653 0 1.143 0.49 1.143 1.143v25.143c0 0.653-0.49 1.143-1.143 1.143z"></path>
<path d="M1.143 24c-0.631 0-1.143 0.512-1.143 1.143v0c0 0.631 0.512 1.143 1.143 1.143v0h29.714c0.631 0 1.143-0.512 1.143-1.143v0c0-0.631-0.512-1.143-1.143-1.143v0h-29.714z"></path>
<path d="M22.853 13.071c-0.842-0.674-2.059-0.658-2.888 0.031-0.018 0.015-0.034 0.030-0.049 0.045l0-0-11.924 11.161c-0.223 0.209-0.362 0.506-0.362 0.835 0 0.302 0.117 0.577 0.309 0.782l-0.001-0.001c0.209 0.223 0.506 0.362 0.835 0.362 0.302 0 0.577-0.117 0.782-0.309l-0.001 0.001 11.875-11.116c0.011 0.008 0.026 0.019 0.041 0.029l0.004 0.003 8.719 6.259c0.185 0.133 0.415 0.213 0.665 0.213 0.381 0 0.719-0.187 0.926-0.473l0.002-0.003c0.133-0.185 0.213-0.415 0.213-0.665 0-0.381-0.187-0.719-0.473-0.926l-0.003-0.002-8.67-6.223z"></path>
<path d="M9.714 4.571c-2.827 0-5.143 2.316-5.143 5.143s2.316 5.143 5.143 5.143c2.827 0 5.143-2.316 5.143-5.143s-2.316-5.143-5.143-5.143zM9.714 6.857c1.591 0 2.857 1.266 2.857 2.857s-1.266 2.857-2.857 2.857c-1.591 0-2.857-1.266-2.857-2.857s1.266-2.857 2.857-2.857z"></path>
</svg>
