<!-- Generated by IcoMoon.io -->
<svg version="1.1" xmlns="http://www.w3.org/2000/svg" width="32" height="32" viewBox="0 0 32 32">
<title>interface-id-user</title>
<path d="M30.857 22.857c-0.631 0-1.143 0.512-1.143 1.143v0 4.571c0 0.645-0.498 1.143-1.143 1.143h-4.571c-0.631 0-1.143 0.512-1.143 1.143v0c0 0.631 0.512 1.143 1.143 1.143v0h4.571c1.88 0 3.429-1.549 3.429-3.429v-4.571c0-0.631-0.512-1.143-1.143-1.143v0z"></path>
<path d="M24 0c-0.631 0-1.143 0.512-1.143 1.143v0c0 0.631 0.512 1.143 1.143 1.143v0h4.571c0.645 0 1.143 0.498 1.143 1.143v4.571c0 0.631 0.512 1.143 1.143 1.143v0c0.631 0 1.143-0.512 1.143-1.143v0-4.571c0-1.88-1.549-3.429-3.429-3.429h-4.571z"></path>
<path d="M3.429 0c-1.88 0-3.429 1.549-3.429 3.429v4.571c0 0.631 0.512 1.143 1.143 1.143v0c0.631 0 1.143-0.512 1.143-1.143v0-4.571c0-0.645 0.498-1.143 1.143-1.143h4.571c0.631 0 1.143-0.512 1.143-1.143v0c0-0.631-0.512-1.143-1.143-1.143v0h-4.571z"></path>
<path d="M1.143 22.857c-0.631 0-1.143 0.512-1.143 1.143v0 4.571c0 1.88 1.549 3.429 3.429 3.429h4.571c0.631 0 1.143-0.512 1.143-1.143v0c0-0.631-0.512-1.143-1.143-1.143v0h-4.571c-0.645 0-1.143-0.498-1.143-1.143v-4.571c0-0.631-0.512-1.143-1.143-1.143v0z"></path>
<path d="M16 4.571c-3.142 0-5.714 2.572-5.714 5.714s2.572 5.714 5.714 5.714c3.142 0 5.714-2.572 5.714-5.714s-2.572-5.714-5.714-5.714zM16 6.857c1.907 0 3.429 1.522 3.429 3.429s-1.521 3.429-3.429 3.429c-1.907 0-3.429-1.521-3.429-3.429s1.521-3.429 3.429-3.429z"></path>
<path d="M16 18.335c-3.314 0-6.629 1.724-8.263 5.174-0.069 0.143-0.11 0.311-0.11 0.489 0 0.454 0.264 0.846 0.648 1.030l0.007 0.003c0.144 0.070 0.312 0.111 0.491 0.111 0.452 0 0.843-0.263 1.029-0.644l0.003-0.007c2.511-5.3 9.882-5.3 12.393 0 0.188 0.388 0.579 0.651 1.032 0.651 0.178 0 0.347-0.041 0.498-0.114l-0.007 0.003c0.39-0.187 0.655-0.579 0.655-1.033 0-0.178-0.041-0.346-0.113-0.496l0.003 0.007c-1.634-3.45-4.949-5.174-8.263-5.174z"></path>
</svg>
