<!-- Generated by IcoMoon.io -->
<svg version="1.1" xmlns="http://www.w3.org/2000/svg" width="32" height="32" viewBox="0 0 32 32">
<title>interface-user-circle</title>
<path d="M16 5.714c-3.774 0-6.857 3.084-6.857 6.857s3.084 6.857 6.857 6.857c3.774 0 6.857-3.084 6.857-6.857s-3.084-6.857-6.857-6.857zM16 8c2.538 0 4.571 2.033 4.571 4.571s-2.033 4.571-4.571 4.571c-2.538 0-4.571-2.033-4.571-4.571s2.033-4.571 4.571-4.571z"></path>
<path d="M16 20.603c-4.151 0-8.3 2.002-10.737 6.004-0.104 0.169-0.166 0.374-0.166 0.593 0 0.41 0.216 0.77 0.54 0.971l0.005 0.003c0.17 0.105 0.376 0.168 0.596 0.168 0.411 0 0.771-0.217 0.973-0.542l0.003-0.005c4.033-6.626 13.538-6.626 17.571 0 0.204 0.33 0.564 0.547 0.975 0.547 0.22 0 0.426-0.062 0.601-0.171l-0.005 0.003c0.329-0.204 0.545-0.564 0.545-0.974 0-0.219-0.062-0.424-0.169-0.598l0.003 0.005c-2.436-4.002-6.585-6.004-10.737-6.004z"></path>
<path d="M16 0c-8.823 0-16 7.177-16 16s7.177 16 16 16c8.823 0 16-7.177 16-16s-7.177-16-16-16zM16 2.286c7.588 0 13.714 6.127 13.714 13.714s-6.127 13.714-13.714 13.714c-7.588 0-13.714-6.127-13.714-13.714s6.127-13.714 13.714-13.714z"></path>
</svg>
