<!-- Generated by IcoMoon.io -->
<svg version="1.1" xmlns="http://www.w3.org/2000/svg" width="32" height="32" viewBox="0 0 32 32">
<title>interface-content-archive-folder</title>
<path d="M3.429 16c-1.88 0-3.429 1.549-3.429 3.429v6.857c0 1.88 1.549 3.429 3.429 3.429h25.143c1.88 0 3.429-1.549 3.429-3.429v-6.857c0-1.88-1.549-3.429-3.429-3.429h-6.857c-0.631 0-1.143 0.512-1.143 1.143v0 1.143h-9.143v-1.143c-0-0.631-0.512-1.143-1.143-1.143h-6.857zM3.429 18.286h5.714v1.143c0 0.631 0.512 1.143 1.143 1.143h11.429c0.631-0 1.143-0.512 1.143-1.143v0-1.143h5.714c0.645 0 1.143 0.498 1.143 1.143v6.857c0 0.645-0.498 1.143-1.143 1.143h-25.143c-0.645 0-1.143-0.498-1.143-1.143v-6.857c0-0.645 0.498-1.143 1.143-1.143z"></path>
<path d="M3.429 9.143c-0.631 0-1.143 0.512-1.143 1.143v0c0 0.631 0.512 1.143 1.143 1.143v0h25.143c0.631 0 1.143-0.512 1.143-1.143v0c0-0.631-0.512-1.143-1.143-1.143v0h-25.143z"></path>
<path d="M3.429 2.286c-0.631 0-1.143 0.512-1.143 1.143v0c0 0.631 0.512 1.143 1.143 1.143v0h25.143c0.631 0 1.143-0.512 1.143-1.143v0c0-0.631-0.512-1.143-1.143-1.143v0h-25.143z"></path>
</svg>
