<!-- Generated by IcoMoon.io -->
<svg version="1.1" xmlns="http://www.w3.org/2000/svg" width="32" height="32" viewBox="0 0 32 32">
<title>interface-share-user</title>
<path d="M16 9.143c-3.458 0-6.286 2.828-6.286 6.286s2.828 6.286 6.286 6.286c3.458 0 6.286-2.828 6.286-6.286s-2.828-6.286-6.286-6.286zM16 11.429c2.223 0 4 1.777 4 4s-1.777 4-4 4c-2.223 0-4-1.777-4-4s1.777-4 4-4z"></path>
<path d="M16 24.045c-4.079 0-8.158 2.101-10.241 6.304-0.075 0.148-0.119 0.322-0.119 0.507 0 0.447 0.256 0.834 0.63 1.021l0.007 0.003c0.148 0.075 0.323 0.119 0.509 0.119 0.445 0 0.831-0.255 1.020-0.626l0.003-0.006c3.391-6.843 12.993-6.843 16.384 0 0.192 0.378 0.577 0.633 1.023 0.633 0.185 0 0.36-0.044 0.515-0.122l-0.007 0.003c0.38-0.191 0.636-0.578 0.636-1.024 0-0.185-0.044-0.359-0.122-0.513l0.003 0.007c-2.083-4.203-6.163-6.304-10.241-6.304z"></path>
<path d="M16 0c-12.721 0-19.985 14.736-12.237 24.826 0.211 0.273 0.538 0.447 0.906 0.447 0.263 0 0.506-0.089 0.699-0.239l-0.003 0.002c0.273-0.211 0.447-0.538 0.447-0.906 0-0.263-0.089-0.506-0.239-0.699l0.002 0.003c-6.684-8.703-0.549-21.147 10.424-21.147s17.108 12.444 10.424 21.147c-0.148 0.191-0.237 0.433-0.237 0.696 0 0.368 0.174 0.695 0.444 0.904l0.003 0.002c0.191 0.148 0.433 0.237 0.696 0.237 0.368 0 0.695-0.174 0.904-0.444l0.002-0.003c7.748-10.090 0.484-24.826-12.237-24.826z"></path>
</svg>
