<!-- Generated by IcoMoon.io -->
<svg version="1.1" xmlns="http://www.w3.org/2000/svg" width="32" height="32" viewBox="0 0 32 32">
<title>interface-page-controller-scroll-up</title>
<path d="M16 7.67c-0.588 0-1.174 0.222-1.616 0.665l-14.049 14.049c-0.207 0.207-0.335 0.492-0.335 0.808s0.128 0.601 0.335 0.808v0c0.207 0.207 0.492 0.335 0.808 0.335s0.601-0.128 0.808-0.335l14.049-14.049 14.049 14.049c0.207 0.207 0.492 0.335 0.808 0.335s0.601-0.128 0.808-0.335v0c0.207-0.207 0.335-0.492 0.335-0.808s-0.128-0.601-0.335-0.808l-14.049-14.049c-0.442-0.443-1.028-0.665-1.616-0.665z"></path>
</svg>
