<!-- Generated by IcoMoon.io -->
<svg version="1.1" xmlns="http://www.w3.org/2000/svg" width="32" height="32" viewBox="0 0 32 32">
<title>interface-file-folder</title>
<path d="M2.366 10.286c-1.298 0-2.357 1.124-2.281 2.42l0.942 16.067c0.106 1.8 1.621 3.227 3.424 3.228h23.156c1.782 0.003 3.287-1.388 3.424-3.165l0.884-11.518c0.1-1.311-0.967-2.461-2.281-2.46h-13.875l-0.705-2.839c-0.253-1.014-1.178-1.734-2.223-1.732h-10.464zM2.366 12.571h10.464c0.001 0 0.001 0 0.002 0s0.002 0 0.002 0h-0l0.924 3.705c0.128 0.501 0.576 0.866 1.109 0.866 0.001 0 0.002 0 0.003 0h14.763c0.001 0 0.001 0 0.002 0s0.002 0 0.002 0h-0l-0.884 11.518c-0.047 0.607-0.534 1.055-1.143 1.054-0.001 0-0.001 0-0.002 0s-0.002 0-0.002 0h-23.156c-0.617 0-1.106-0.46-1.143-1.076l-0.942-16.067z"></path>
<path d="M9.156 0c-1.249 0-2.286 1.037-2.286 2.286v4.571c0 0.631 0.512 1.143 1.143 1.143v0c0.631 0 1.143-0.512 1.143-1.143v0-4.571h19.429v9.143c0 0.631 0.512 1.143 1.143 1.143v0c0.631 0 1.143-0.512 1.143-1.143v0-9.143c0-1.249-1.037-2.286-2.286-2.286h-19.429z"></path>
<path d="M17.156 5.714c-0.631 0-1.143 0.512-1.143 1.143v0c0 0.631 0.512 1.143 1.143 1.143v0h6.857c0.631 0 1.143-0.512 1.143-1.143v0c0-0.631-0.512-1.143-1.143-1.143v0h-6.857z"></path>
</svg>
