<!-- Generated by IcoMoon.io -->
<svg version="1.1" xmlns="http://www.w3.org/2000/svg" width="32" height="32" viewBox="0 0 32 32">
<title>interface-file-multiple</title>
<path d="M5.358 6.744c-1.854 0.31-3.126 2.093-2.816 3.947l3.085 18.445c0.31 1.854 2.093 3.126 3.947 2.816l13.148-2.199c1.854-0.31 3.126-2.093 2.816-3.947l-3.085-18.445c-0.31-1.854-2.093-3.126-3.947-2.816l-13.148 2.199zM5.735 8.998l13.148-2.199c0.644-0.108 1.208 0.295 1.316 0.939l3.085 18.445c0.108 0.644-0.295 1.208-0.939 1.316l-13.148 2.199c-0.644 0.108-1.208-0.295-1.316-0.939l-3.085-18.445c-0.108-0.644 0.295-1.208 0.939-1.316z"></path>
<path d="M17.545 11.067c-0.060 0.002-0.117 0.009-0.172 0.019l0.007-0.001-8.826 1.478c-0.547 0.092-0.958 0.562-0.958 1.128 0 0.067 0.006 0.132 0.017 0.196l-0.001-0.007c0.094 0.544 0.563 0.953 1.127 0.953 0.067 0 0.133-0.006 0.197-0.017l-0.007 0.001 8.83-1.478c0.544-0.094 0.953-0.563 0.953-1.127 0-0.067-0.006-0.133-0.017-0.197l0.001 0.007c-0.093-0.546-0.562-0.956-1.127-0.956-0.009 0-0.017 0-0.026 0l0.001-0z"></path>
<path d="M18.429 16.366c-0.057 0.001-0.113 0.006-0.167 0.014l0.007-0.001-8.83 1.478c-0.544 0.094-0.953 0.563-0.953 1.127 0 0.067 0.006 0.133 0.017 0.197l-0.001-0.007c0.094 0.544 0.563 0.953 1.127 0.953 0.066 0 0.13-0.006 0.192-0.016l-0.007 0.001 8.83-1.478c0.544-0.094 0.953-0.563 0.953-1.127 0-0.066-0.006-0.13-0.016-0.192l0.001 0.007c-0.093-0.546-0.562-0.956-1.127-0.956-0.009 0-0.017 0-0.026 0l0.001-0z"></path>
<path d="M15.786 22.254c-0.059 0-0.116 0.005-0.172 0.014l0.007-0.001-5.299 0.888c-0.544 0.094-0.953 0.563-0.953 1.127 0 0.067 0.006 0.133 0.017 0.197l-0.001-0.007c0.094 0.544 0.563 0.953 1.127 0.953 0.067 0 0.133-0.006 0.197-0.017l-0.007 0.001 5.299-0.888c0.544-0.094 0.953-0.563 0.953-1.127 0-0.066-0.006-0.13-0.016-0.192l0.001 0.007c-0.093-0.546-0.562-0.956-1.127-0.956-0.009 0-0.017 0-0.026 0l0.001-0z"></path>
<path d="M12.388 0c-0.014-0.001-0.030-0.001-0.045-0.001-0.616 0-1.118 0.487-1.142 1.097l-0 0.002c-0.001 0.014-0.001 0.030-0.001 0.045 0 0.616 0.487 1.118 1.097 1.142l0.002 0 14.308 0.558c0.001 0 0.001 0 0.002 0s0.002 0 0.002 0h-0c0.37 0.014 0.635 0.3 0.621 0.67 0 0.001 0 0.001 0 0.002s0 0.002 0 0.002v-0l-0.719 18.17c-0 0.012-0.001 0.027-0.001 0.041 0 0.616 0.487 1.118 1.097 1.142l0.002 0c0.014 0.001 0.030 0.001 0.046 0.001 0.614 0 1.115-0.485 1.142-1.092l0-0.002 0.714-18.17c0.065-1.607-1.21-2.984-2.817-3.045l-14.308-0.563z"></path>
</svg>
