<!-- Generated by IcoMoon.io -->
<svg version="1.1" xmlns="http://www.w3.org/2000/svg" width="32" height="32" viewBox="0 0 32 32">
<title>interface-hierarchy-3</title>
<path d="M2.286 21.714c-1.247 0-2.286 1.039-2.286 2.286v5.714c0 1.247 1.039 2.286 2.286 2.286h5.714c1.247 0 2.286-1.039 2.286-2.286v-5.714c0-1.247-1.039-2.286-2.286-2.286h-5.714zM2.286 24h5.714v5.714h-5.714v-5.714z"></path>
<path d="M24 21.714c-1.247 0-2.286 1.039-2.286 2.286v5.714c0 1.247 1.039 2.286 2.286 2.286h5.714c1.247 0 2.286-1.039 2.286-2.286v-5.714c0-1.247-1.039-2.286-2.286-2.286h-5.714zM24 24h5.714v5.714h-5.714v-5.714z"></path>
<path d="M12.571 0c-1.247 0-2.286 1.039-2.286 2.286v6.857c0 1.247 1.039 2.286 2.286 2.286h6.857c1.247 0 2.286-1.039 2.286-2.286v-6.857c0-1.247-1.039-2.286-2.286-2.286h-6.857zM12.571 2.286h6.857v6.857h-6.857v-6.857z"></path>
<path d="M9.143 26.286c-0.631 0-1.143 0.512-1.143 1.143v0c0 0.631 0.512 1.143 1.143 1.143v0h13.714c0.631 0 1.143-0.512 1.143-1.143v0c0-0.631-0.512-1.143-1.143-1.143v0h-13.714z"></path>
<path d="M11.589 8.67c-0.438 0.021-0.81 0.287-0.984 0.663l-0.003 0.007-5.929 13.045c-0.065 0.139-0.103 0.302-0.103 0.473 0 0.46 0.271 0.856 0.662 1.037l0.007 0.003c0.139 0.065 0.302 0.103 0.473 0.103 0.46 0 0.856-0.271 1.037-0.662l0.003-0.007 5.929-13.049c0.065-0.139 0.103-0.302 0.103-0.473 0-0.46-0.271-0.856-0.662-1.037l-0.007-0.003c-0.137-0.063-0.298-0.1-0.467-0.1-0.021 0-0.042 0.001-0.063 0.002l0.003-0z"></path>
<path d="M20.304 8.67c-0.153 0.006-0.297 0.042-0.427 0.101l0.007-0.003c-0.398 0.184-0.67 0.581-0.67 1.040 0 0.172 0.038 0.334 0.105 0.48l-0.003-0.007 5.929 13.049c0.184 0.398 0.581 0.67 1.040 0.67 0.172 0 0.334-0.038 0.48-0.105l-0.007 0.003c0.398-0.184 0.67-0.581 0.67-1.040 0-0.172-0.038-0.334-0.105-0.48l0.003 0.007-5.929-13.045c-0.184-0.399-0.581-0.671-1.041-0.671-0.019 0-0.037 0-0.055 0.001l0.003-0z"></path>
</svg>
