<!-- Generated by IcoMoon.io -->
<svg version="1.1" xmlns="http://www.w3.org/2000/svg" width="32" height="32" viewBox="0 0 32 32">
<title>interface-arrows-button-down</title>
<path d="M1.089 7.67c-0.295 0.013-0.56 0.137-0.755 0.33l0-0c-0.207 0.207-0.335 0.492-0.335 0.808s0.128 0.601 0.335 0.808l14.049 14.049c0.883 0.886 2.349 0.886 3.232 0l14.049-14.049c0.207-0.207 0.335-0.492 0.335-0.808s-0.128-0.601-0.335-0.808v0c-0.207-0.207-0.492-0.335-0.808-0.335s-0.601 0.128-0.808 0.335l-14.049 14.049-14.049-14.049c-0.206-0.205-0.491-0.332-0.805-0.332-0.020 0-0.040 0-0.059 0.002l0.003-0z"></path>
</svg>
