<!-- Generated by IcoMoon.io -->
<svg version="1.1" xmlns="http://www.w3.org/2000/svg" width="32" height="32" viewBox="0 0 32 32">
<title>interface-user-single</title>
<path d="M16 0c-4.72 0-8.571 3.851-8.571 8.571s3.851 8.571 8.571 8.571c4.72 0 8.571-3.851 8.571-8.571s-3.851-8.571-8.571-8.571zM16 2.286c3.485 0 6.286 2.801 6.286 6.286s-2.801 6.286-6.286 6.286c-3.485 0-6.286-2.801-6.286-6.286s2.801-6.286 6.286-6.286z"></path>
<path d="M16 19.442c-6.394 0-12.847 3.749-15.219 11.063-0.035 0.105-0.056 0.227-0.056 0.353 0 0.63 0.51 1.142 1.14 1.143h28.268c0.63-0.001 1.141-0.513 1.141-1.143 0-0.126-0.020-0.247-0.058-0.361l0.002 0.008c-2.372-7.313-8.825-11.063-15.219-11.063zM16 21.728c5.023 0 9.868 2.708 12.281 7.987h-24.563c2.413-5.279 7.258-7.987 12.281-7.987z"></path>
</svg>
