<!-- Generated by IcoMoon.io -->
<svg version="1.1" xmlns="http://www.w3.org/2000/svg" width="32" height="32" viewBox="0 0 32 32">
<title>mail-send-email</title>
<path d="M29.174 0.125c-0.647-0.174-1.35-0.17-2.058 0.067l-24.58 8.192c-2.563 0.861-3.357 4.221-1.451 6.138l5.92 5.924-0.201 7.429c-0 0.009-0 0.020-0 0.030 0 0.631 0.512 1.143 1.143 1.143 0.193 0 0.374-0.048 0.533-0.132l-0.006 0.003 4.612-2.397 4.393 4.393c1.917 1.917 5.289 1.121 6.147-1.451l8.183-24.58c0.71-2.125-0.693-4.236-2.634-4.759zM27.839 2.362c1.182-0.395 2.194 0.617 1.799 1.799l-8.183 24.58c-0.351 1.051-1.578 1.341-2.362 0.558 0-0.001 0-0.001 0-0.002s0-0.002 0-0.002v0l-4.987-4.978c-0.207-0.206-0.492-0.334-0.808-0.334-0.193 0-0.374 0.048-0.533 0.132l0.006-0.003-3.629 1.888 0.161-5.982c0-0.009 0-0.020 0-0.031 0-0.316-0.128-0.602-0.335-0.809v0l-6.263-6.272c-0.779-0.783-0.489-2.005 0.558-2.357l24.576-8.188z"></path>
<path d="M29.906 0.647c-0.249 0.019-0.472 0.116-0.649 0.265l0.002-0.001-21.83 18.196c-0.253 0.211-0.413 0.527-0.413 0.879 0 0.279 0.1 0.536 0.267 0.734l-0.001-0.002c0.211 0.253 0.527 0.413 0.879 0.413 0.279 0 0.536-0.1 0.734-0.267l-0.002 0.001 21.83-18.201c0.253-0.211 0.413-0.527 0.413-0.879 0-0.279-0.1-0.536-0.267-0.734l0.001 0.002c-0.211-0.251-0.525-0.41-0.877-0.41-0.031 0-0.061 0.001-0.092 0.004l0.004-0z"></path>
</svg>
