<!-- Generated by IcoMoon.io -->
<svg version="1.1" xmlns="http://www.w3.org/2000/svg" width="32" height="32" viewBox="0 0 32 32">
<title>mail-send-envelope</title>
<path d="M3.429 2.857c-1.88 0-3.429 1.549-3.429 3.429v19.429c0 1.88 1.549 3.429 3.429 3.429h25.143c1.88 0 3.429-1.549 3.429-3.429v-19.429c0-1.88-1.549-3.429-3.429-3.429h-25.143zM3.429 5.143h25.143c0.653 0 1.143 0.49 1.143 1.143v19.429c0 0.653-0.49 1.143-1.143 1.143h-25.143c-0.653 0-1.143-0.49-1.143-1.143v-19.429c0-0.653 0.49-1.143 1.143-1.143z"></path>
<path d="M1.129 5.75c-0.345 0.004-0.653 0.16-0.86 0.405l-0.001 0.002c-0.166 0.197-0.267 0.454-0.267 0.734 0 0.349 0.157 0.662 0.404 0.872l0.002 0.001 13.384 11.295c1.271 1.073 3.148 1.073 4.42 0l13.384-11.295c0.249-0.211 0.405-0.524 0.405-0.873 0-0.28-0.101-0.537-0.268-0.736l0.001 0.002c-0.211-0.25-0.525-0.408-0.875-0.408-0.282 0-0.539 0.102-0.738 0.271l0.002-0.001-13.384 11.295c-0.432 0.364-1.042 0.364-1.473 0l-13.384-11.295c-0.197-0.167-0.454-0.268-0.735-0.268-0.005 0-0.010 0-0.015 0h0.001z"></path>
</svg>
