<!-- Generated by IcoMoon.io -->
<svg version="1.1" xmlns="http://www.w3.org/2000/svg" width="32" height="32" viewBox="0 0 32 32">
<title>programming-script-2</title>
<path d="M11.429 0c-3.142 0-5.714 2.572-5.714 5.714v20.571c0 1.907-1.522 3.429-3.429 3.429-0.624 0.009-1.127 0.517-1.127 1.143s0.503 1.134 1.126 1.143h14.858c3.142 0 5.714-2.572 5.714-5.714v-18.286c0-0.631-0.512-1.143-1.143-1.143v0c-0.631 0-1.143 0.512-1.143 1.143v0 18.286c0 1.907-1.521 3.429-3.429 3.429h-10.567c0.774-0.975 1.424-2.094 1.424-3.429v-20.571c0-1.907 1.522-3.429 3.429-3.429h14.286c0.631 0 1.143-0.512 1.143-1.143v0c0-0.631-0.512-1.143-1.143-1.143v0h-14.286z"></path>
<path d="M25.714 0c-2.827 0-5.143 2.316-5.143 5.143v2.857c0 0.631 0.512 1.143 1.143 1.143h6.857c1.249 0 2.286-1.037 2.286-2.286v-1.714c0-2.827-2.316-5.143-5.143-5.143zM25.714 2.286c1.591 0 2.857 1.266 2.857 2.857v1.714h-5.714v-1.714c0-1.591 1.266-2.857 2.857-2.857z"></path>
<path d="M13.714 8c-0.631 0-1.143 0.512-1.143 1.143v0c0 0.631 0.512 1.143 1.143 1.143v0h3.429c0.631 0 1.143-0.512 1.143-1.143v0c0-0.631-0.512-1.143-1.143-1.143v0h-3.429z"></path>
<path d="M11.429 14.857c-0.631 0-1.143 0.512-1.143 1.143v0c0 0.631 0.512 1.143 1.143 1.143v0h5.714c0.631 0 1.143-0.512 1.143-1.143v0c0-0.631-0.512-1.143-1.143-1.143v0h-5.714z"></path>
<path d="M11.429 21.714c-0.631 0-1.143 0.512-1.143 1.143v0c0 0.631 0.512 1.143 1.143 1.143v0h5.714c0.631 0 1.143-0.512 1.143-1.143v0c0-0.631-0.512-1.143-1.143-1.143v0h-5.714z"></path>
</svg>
