<!-- Generated by IcoMoon.io -->
<svg version="1.1" xmlns="http://www.w3.org/2000/svg" width="32" height="32" viewBox="0 0 32 32">
<title>shopping-bag-suit-case</title>
<path d="M3.429 6.857c-1.88 0-3.429 1.549-3.429 3.429v18.286c0 1.88 1.549 3.429 3.429 3.429h25.143c1.88 0 3.429-1.549 3.429-3.429v-18.286c0-1.88-1.549-3.429-3.429-3.429h-25.143zM3.429 9.143h25.143c0.653 0 1.143 0.49 1.143 1.143v18.286c0 0.653-0.49 1.143-1.143 1.143h-25.143c-0.653 0-1.143-0.49-1.143-1.143v-18.286c0-0.653 0.49-1.143 1.143-1.143z"></path>
<path d="M11.429 0c-1.88 0-3.429 1.549-3.429 3.429v4.571c0 0.631 0.512 1.143 1.143 1.143h13.714c0.631-0 1.143-0.512 1.143-1.143v0-4.571c0-1.88-1.549-3.429-3.429-3.429h-9.143zM11.429 2.286h9.143c0.645 0 1.143 0.498 1.143 1.143v3.429h-11.429v-3.429c0-0.645 0.498-1.143 1.143-1.143z"></path>
<path d="M8 14.857c-0.631 0-1.143 0.512-1.143 1.143v0c0 0.631 0.512 1.143 1.143 1.143v0h16c0.631 0 1.143-0.512 1.143-1.143v0c0-0.631-0.512-1.143-1.143-1.143v0h-16z"></path>
<path d="M8 21.714c-0.631 0-1.143 0.512-1.143 1.143v0c0 0.631 0.512 1.143 1.143 1.143v0h16c0.631 0 1.143-0.512 1.143-1.143v0c0-0.631-0.512-1.143-1.143-1.143v0h-16z"></path>
</svg>
