<!-- Generated by IcoMoon.io -->
<svg version="1.1" xmlns="http://www.w3.org/2000/svg" width="32" height="32" viewBox="0 0 32 32">
<title>social-instagram</title>
<path d="M7.603 0c-4.192 0-7.603 3.411-7.603 7.603v16.795c0 4.192 3.411 7.603 7.603 7.603h16.795c4.192 0 7.603-3.411 7.603-7.603v-16.795c0-4.192-3.411-7.603-7.603-7.603h-16.795zM7.603 2.286h16.795c2.965 0 5.317 2.352 5.317 5.317v16.795c0 2.965-2.352 5.317-5.317 5.317h-16.795c-2.965 0-5.317-2.352-5.317-5.317v-16.795c0-2.965 2.352-5.317 5.317-5.317z"></path>
<path d="M16 10.237c-3.17 0-5.763 2.593-5.763 5.763s2.593 5.763 5.763 5.763c3.17 0 5.763-2.593 5.763-5.763s-2.593-5.763-5.763-5.763zM16 12.522c1.935 0 3.478 1.543 3.478 3.478s-1.543 3.478-3.478 3.478c-1.935 0-3.478-1.543-3.478-3.478s1.543-3.478 3.478-3.478z"></path>
<path d="M22.107 8.254c-0.892 0-1.638 0.747-1.638 1.638s0.747 1.638 1.638 1.638c0.892 0 1.638-0.747 1.638-1.638s-0.747-1.638-1.638-1.638zM22.107 9.246c0.344 0 0.647 0.304 0.647 0.647s-0.304 0.647-0.647 0.647c-0.344 0-0.647-0.304-0.647-0.647s0.304-0.647 0.647-0.647z"></path>
<path d="M10.719 4.295c-3.54 0-6.424 2.884-6.424 6.424v10.563c0 3.54 2.884 6.424 6.424 6.424h10.563c3.54 0 6.424-2.884 6.424-6.424v-10.563c0-3.54-2.884-6.424-6.424-6.424h-10.563zM10.719 6.58h10.563c2.313 0 4.138 1.825 4.138 4.138v10.563c0 2.313-1.825 4.138-4.138 4.138h-10.563c-2.313 0-4.138-1.825-4.138-4.138v-10.563c0-2.313 1.825-4.138 4.138-4.138z"></path>
</svg>
